# xmcd
#
# Track frame offsets: 
#        150
#        19616
#        35808
#        56174
#
# Disc length: 1005 seconds
#
# Revision: 0
# Processed by: cddbd v1.5.2PL0 Copyright (c) Steve Scherf et al.
# Submitted via: ExactAudioCopy v0.99pb4
#
DISCID=3003eb04
DTITLE=Hannah Bethel - No Stopping, Standing, Parking
DYEAR=2010
DGENRE=Country
TTITLE0=Walk Away
TTITLE1=Forgetting to Forget
TTITLE2=Mr. Dependable
TTITLE3=Does Anybody Know
EXTD=
EXTT0=
EXTT1=
EXTT2=
EXTT3=
PLAYORDER=
